<?xml version="1.0" encoding="UTF-8"?>
<!-- Created with Grafika (https://www.grafika.cc/) -->
<svg xmlns="http://www.w3.org/2000/svg" xmlns:svg="http://www.w3.org/2000/svg" xmlns:xlink="http://www.w3.org/1999/xlink" width="55" height="55" viewBox="0 0 419.41 495.98" preserveAspectRatio="xMidYMid meet">
	<g transform="matrix(1, 0, 0, 1, 222.86337280273438, 227.4677734375)">
		<g transform="matrix(0.8787568807601929, 0.4772692322731018, -0.4772692322731018, 0.8787568807601929, -13.071335792541504, -95.29450988769531)">
			<path d="M-203.02,-29.21 C-210,-29.25 -216.5,-25.65 -220.16,-19.7 C-223.83,-13.76 -224.13,-6.33 -220.96,-0.11 L-212.2,17.09 C-208.78,23.78 -201.91,28 -194.4,28.02 L194.88,28.71 C202.51,28.72 209.48,24.4 212.86,17.56 L220.6,1.9 C223.66,-4.29 223.31,-11.62 219.68,-17.49 C216.06,-23.36 209.66,-26.95 202.76,-26.99 L-203.02,-29.21 ZM-203.13,-9.2 L202.65,-6.97 L194.91,8.7 L-194.36,8 L-203.13,-9.2 Z" fill="#444545" />
		</g>
		<path d="M-187.57,-138.35 C-198.49,-138.13 -207.21,-129.2 -207.18,-118.28 L-206.07,248.56 C-206.04,256.03 -201.86,262.87 -195.21,266.29 C-188.56,269.71 -180.57,269.14 -174.47,264.82 L-155.7,251.5 C-150.4,247.75 -147.26,241.65 -147.26,235.16 L-147.5,-54.93 L22.07,33.39 C28.78,36.88 36.88,36.3 43.01,31.88 L56.64,22.07 C62.25,18.03 65.38,11.39 64.92,4.49 C64.46,-2.41 60.47,-8.58 54.38,-11.83 L-147.54,-119.61 L-147.54,-107.7 C-147.54,-115.03 -151.56,-121.78 -158.01,-125.29 L-177.61,-135.93 C-180.67,-137.59 -184.1,-138.42 -187.57,-138.35 ZM-187.17,-118.34 L-167.56,-107.7 L-167.56,-107.61 L44.95,5.83 L31.32,15.64 L-167.54,-87.94 L-167.28,235.18 L-186.05,248.5 L-187.17,-118.34 ZM-187.57,-107.61 C-187.48,-107.21 -187.37,-106.81 -187.24,-106.41 L-187.57,-106.21 L-187.57,-107.61 Z" fill="#444545" />
		<g transform="matrix(1, 0, 0, 1, 14.604386329650879, 28.02373504638672)">
			<path d="M-44.07,-7.16 C-47.97,-7.16 -51.79,-6.01 -55.05,-3.85 L-135.21,49.05 C-140.9,52.8 -144.28,59.19 -144.2,66 L-143.99,83.02 C-143.82,93.76 -135.21,102.45 -124.47,102.72 C-124.51,102.72 -124.68,102.77 -124.72,102.77 C-126.34,102.71 -127.11,102.55 -127.72,102.43 C-128.94,102.2 -129.38,102.05 -129.74,101.94 C-130.47,101.71 -130.67,101.63 -130.84,101.57 C-131.19,101.44 -131.21,101.42 -131.21,101.43 C-131.2,101.43 -130.95,101.53 -130.62,101.67 C-129.94,101.96 -128.82,102.42 -127.32,103.04 C-124.33,104.27 -119.78,106.11 -113.5,108.55 C-100.95,113.43 -81.47,120.68 -53.47,130.29 C-47.34,132.39 -40.57,131.39 -35.31,127.62 L-20.18,116.77 C-14.21,112.48 -11.06,105.27 -11.99,97.97 C-12.92,90.68 -17.78,84.48 -24.63,81.83 L-60.89,67.82 L-18.98,37.95 C-13.6,34.11 -10.45,27.87 -10.58,21.26 C-10.71,14.64 -14.1,8.52 -19.63,4.9 L-33.07,-3.89 C-36.34,-6.03 -40.16,-7.17 -44.07,-7.16 ZM-44.03,12.85 L-30.6,21.65 L-102.78,73.08 L-31.85,100.5 L-46.97,111.35 C-102.52,92.3 -123.85,82.7 -123.97,82.77 L-124.19,65.75 L-44.03,12.85 ZM-114.35,100.32 C-114.35,100.32 -118.42,101.42 -121.57,102.12 C-119.07,101.98 -116.62,101.37 -114.35,100.32 Z" fill="#444545" />
		</g>
	</g>
</svg>